<svg width="100" height="105" xmlns="http://www.w3.org/2000/svg"><g fill="none" fill-rule="evenodd"><path fill="#00FFC3" d="M55.564 61.7l-6.931 8.514h27.67V61.7z"/><path fill="#FFF" d="M47.696 90.89h8.56V75.688h-8.56zm-28.129 13.987h8.56v-8.514h-8.56zm28.127 0h21.401v-8.514H47.694z"/><path fill="#FFE600" d="M0 70.214h42.19V61.7H0z"/><path fill="#FFF" d="M33.63 104.877h8.56v-29.19h-8.56zm-5.505-65.761V25.59L3.18 56.227h11.014zM48.961 0l-1.267 1.556v13.528l7.92-9.727zm7.293 13.267l-8.56 10.514v32.446h8.56zM33.63 56.227h8.56V8.315l-8.56 10.512z"/><path fill="#00FFC3" d="M55.564 61.7l-6.931 8.514h27.67V61.7z"/><path fill="#FFF" d="M65.748 33.208h34.15v-6.184h-34.15z"/><path fill="#FFF" d="M79.714 47.098h6.218V13.134h-6.218z"/></g></svg>