<svg width="28" height="39" xmlns="http://www.w3.org/2000/svg"><g fill="none" fill-rule="evenodd"><path d="M18.331 0l-.463.578v5.021l2.894-3.61L18.332 0zM12.73 6.99v13.88h3.128V3.087L12.73 6.989zm5.139 1.838v12.044h3.128V4.925l-3.128 3.902zM1.602 20.871h4.025l5.091-6.351V9.498L1.602 20.871zM17.87 33.737h3.128v-5.643H17.87v5.643zm-5.14 5.192h3.128V28.094H12.73V38.93zm5.139 0h7.82v-3.16h-7.82v3.16zm-10.277 0h3.128v-3.16H7.59v3.16z" fill="#FFF"/><path fill="#00FFC3" d="M20.744 22.903l-2.533 3.16h10.11v-3.16z"/><path fill="#FFE600" d="M.44 26.063h15.417v-3.16H.441z"/><path fill="#00FFC3" d="M20.744 22.903l-2.533 3.16h10.11v-3.16z"/></g></svg>